HIERARCHY
ROOT Hips
{
	OFFSET 0.000000 0.000000 0.000000
	CHANNELS 6 Xposition Yposition Zposition Zrotation Yrotation Xrotation 
	JOINT LHipJoint
	{
		OFFSET 0.000000 0.000000 0.000000
		CHANNELS 3 Zrotation Yrotation Xrotation
		JOINT LeftUpLeg
		{
			OFFSET 1.363060 -1.794630 0.839290
			CHANNELS 3 Zrotation Yrotation Xrotation
			JOINT LeftLeg
			{
				OFFSET 2.448110 -6.726130 0.000000
				CHANNELS 3 Zrotation Yrotation Xrotation
				JOINT LeftFoot
				{
					OFFSET 2.562200 -7.039590 0.000000
					CHANNELS 3 Zrotation Yrotation Xrotation
					JOINT LeftToeBase
					{
						OFFSET 0.157640 -0.433110 2.322550
						CHANNELS 3 Zrotation Yrotation Xrotation
						End Site
						{
							OFFSET 0.000000 0.000000 0.000000
						}
					}
				}
			}
		}
	}
	JOINT RHipJoint
	{
		OFFSET 0.000000 0.000000 0.000000
		CHANNELS 3 Zrotation Yrotation Xrotation
		JOINT RightUpLeg
		{
			OFFSET -1.305520 -1.794630 0.839290
			CHANNELS 3 Zrotation Yrotation Xrotation
			JOINT RightLeg
			{
				OFFSET -2.542530 -6.985550 0.000000
				CHANNELS 3 Zrotation Yrotation Xrotation
				JOINT RightFoot
				{
					OFFSET -2.568260 -7.056230 0.000000
					CHANNELS 3 Zrotation Yrotation Xrotation
					JOINT RightToeBase
					{
						OFFSET -0.164730 -0.452590 2.363150
						CHANNELS 3 Zrotation Yrotation Xrotation
						End Site
						{
							OFFSET 0.000000 0.000000 0.000000
						}
					}
				}
			}
		}
	}
}
MOTION
Frames: 30
Frame Time: 0.008333
4.706284 17.370978 0.994715 7.023388 -56.438221 11.198432 -9.928909 0.010182 3.007326 -7.380648 -8.895011 -20.983661 -2.613554 -1.243093 -2.847208 -0.343619 0.185213 10.359833 0.642200 -0.000001 -43.040900 10.454586 -0.667844 -3.019590 2.931030 -18.931865 -10.377658 1.266667 0.989366 -3.360109 -2.606781 -22.107188 2.895656 -7.109500 0.000000 -57.890200
4.709692 17.371052 0.997793 6.970061 -56.419058 11.381251 -9.927542 -0.000744 2.985411 -7.381760 -8.833958 -21.170307 -2.618615 -1.239620 -2.804165 -0.351555 0.059006 10.364355 0.601301 0.000000 -43.134600 10.443264 -0.646663 -3.003389 2.992446 -18.756866 -10.531306 1.253516 0.991788 -3.272899 -2.594805 -22.294257 2.812337 -7.197201 0.000000 -57.770700
4.714161 17.370951 1.000498 6.909954 -56.446447 11.554598 -9.925880 -0.011441 2.957941 -7.376865 -8.763908 -21.335962 -2.620489 -1.235865 -2.759620 -0.356539 -0.028977 10.354141 0.572600 -0.000000 -43.218800 10.433007 -0.626656 -2.987175 3.049313 -18.568495 -10.664302 1.241465 0.995531 -3.211266 -2.589430 -22.450461 2.749795 -7.269200 0.000001 -57.662900
4.719820 17.370698 1.002660 6.841030 -56.512276 11.720535 -9.924056 -0.022464 2.926002 -7.364643 -8.686776 -21.477633 -2.619833 -1.232711 -2.725937 -0.358865 -0.083398 10.339401 0.554400 0.000000 -43.288500 10.424032 -0.608467 -2.973096 3.104487 -18.381743 -10.780266 1.232308 1.000383 -3.176234 -2.589621 -22.567535 2.711117 -7.322800 0.000000 -57.573200
4.726537 17.370340 1.004223 6.763992 -56.610394 11.880337 -9.922226 -0.034573 2.890778 -7.342870 -8.609396 -21.596021 -2.616363 -1.230333 -2.704074 -0.358600 -0.100515 10.322433 0.548400 0.000000 -43.341600 10.416155 -0.592469 -2.963116 3.159332 -18.207004 -10.881629 1.227331 1.005970 -3.167324 -2.594581 -22.638574 2.697626 -7.356100 -0.000000 -57.505300
4.734174 17.369988 1.005201 6.680973 -56.736867 12.035361 -9.920885 -0.048476 2.852997 -7.310209 -8.536865 -21.693854 -2.609789 -1.228686 -2.692653 -0.355811 -0.077744 10.304058 0.555400 0.000000 -43.377900 10.408715 -0.578694 -2.958791 3.215393 -18.050834 -10.972047 1.227334 1.011930 -3.182333 -2.602873 -22.660834 2.709191 -7.368899 0.000000 -57.460500
4.742611 17.369672 1.005615 6.591639 -56.886171 12.188302 -9.920416 -0.064310 2.813575 -7.266929 -8.470202 -21.773807 -2.600465 -1.227966 -2.694419 -0.350851 -0.019503 10.288270 0.574000 -0.000000 -43.397100 10.401284 -0.567153 -2.960646 3.274449 -17.918486 -11.056522 1.232939 1.018094 -3.218076 -2.612788 -22.633636 2.744473 -7.362200 0.000000 -57.437700
4.751650 17.369484 1.005531 6.495867 -57.053065 12.341219 -9.920995 -0.081906 2.773410 -7.213851 -8.408364 -21.839301 -2.588920 -1.228285 -2.710595 -0.344019 0.067953 10.278241 0.602200 0.000000 -43.399600 10.393670 -0.557891 -2.968355 3.338173 -17.812442 -11.139789 1.244278 1.024247 -3.269896 -2.622417 -22.559637 2.801010 -7.338400 0.000001 -57.436300
4.761006 17.369458 1.005083 6.396284 -57.234798 12.496186 -9.922855 -0.100929 2.733111 -7.152639 -8.349726 -21.895036 -2.575637 -1.229629 -2.739700 -0.335513 0.179305 10.274212 0.638200 -0.000001 -43.387800 10.385505 -0.550689 -2.980728 3.407306 -17.729883 -11.226458 1.260894 1.030295 -3.332691 -2.630121 -22.444273 2.874919 -7.300900 -0.000000 -57.453100
4.770399 17.369648 1.004411 6.294764 -57.430249 12.655312 -9.926392 -0.120898 2.692806 -7.085846 -8.289708 -21.946224 -2.561268 -1.231887 -2.780293 -0.325870 0.306716 10.276759 0.679399 0.000000 -43.365100 10.376286 -0.545119 -2.996050 3.482280 -17.665413 -11.320980 1.282081 1.036344 -3.401693 -2.634535 -22.294650 2.961065 -7.253000 -0.000000 -57.479200
4.779719 17.370053 1.003636 6.189359 -57.637037 12.820219 -9.931480 -0.141465 2.652949 -7.015396 -8.225136 -21.996979 -2.546322 -1.234954 -2.829670 -0.315307 0.443523 10.284442 0.723500 0.000000 -43.334300 10.365884 -0.541016 -3.012364 3.563445 -17.613113 -11.426308 1.306889 1.042217 -3.471232 -2.634542 -22.119842 3.054801 -7.199100 0.000000 -57.515400
4.788751 17.370642 1.002900 6.082328 -57.855004 12.991680 -9.938253 -0.162042 2.613362 -6.944361 -8.150361 -22.051887 -2.531529 -1.238668 -2.884943 -0.304352 0.581820 10.296198 0.768100 -0.000000 -43.298600 10.354104 -0.537922 -3.027272 3.649943 -17.564568 -11.545132 1.334145 1.048063 -3.537304 -2.629815 -21.928621 3.151219 -7.142600 0.000001 -57.553200
4.797257 17.371405 1.002322 5.975210 -58.084095 13.170316 -9.946555 -0.182129 2.574073 -6.875134 -8.061920 -22.114588 -2.517394 -1.242929 -2.942542 -0.293425 0.716629 10.308765 0.811400 0.000001 -43.261799 10.340909 -0.535543 -3.038582 3.740923 -17.511545 -11.678790 1.362680 1.053972 -3.596368 -2.620028 -21.729422 3.245599 -7.086700 -0.000000 -57.587000
4.805213 17.372257 1.002001 5.866179 -58.322850 13.357162 -9.956057 -0.201274 2.535504 -6.809347 -7.957490 -22.187945 -2.504387 -1.247664 -2.999576 -0.282785 0.842195 10.320148 0.851700 -0.000000 -43.226100 10.326443 -0.533901 -3.044309 3.836030 -17.447776 -11.827838 1.391477 1.059978 -3.645199 -2.605500 -21.530867 3.334485 -7.034800 -0.000000 -57.620300
4.812482 17.373140 1.002056 5.757569 -58.571485 13.551323 -9.966701 -0.219198 2.497293 -6.749006 -7.835254 -22.273970 -2.492775 -1.252647 -3.052092 -0.272991 0.956023 10.327087 0.888300 -0.000000 -43.194000 10.310678 -0.532489 -3.043146 3.932983 -17.367054 -11.991816 1.419570 1.066267 -3.683006 -2.586654 -21.338432 3.414592 -6.988000 0.000000 -57.645900
4.819087 17.374001 1.002493 5.649864 -58.829376 13.752080 -9.978249 -0.235800 2.459546 -6.695013 -7.695727 -22.374331 -2.482675 -1.257745 -3.096947 -0.264119 1.056740 10.326714 0.920700 0.000000 -43.166799 10.293652 -0.531135 -3.034462 4.030713 -17.266007 -12.169440 1.446283 1.072922 -3.709088 -2.564497 -21.156944 3.484289 -6.947500 -0.000000 -57.662700
4.824960 17.374785 1.003373 5.542588 -59.092942 13.959806 -9.990250 -0.250691 2.423118 -6.647601 -7.540285 -22.488833 -2.474402 -1.263101 -3.134683 -0.256540 1.141587 10.319464 0.948200 -0.000000 -43.144900 10.275828 -0.530110 -3.017619 4.128843 -17.144507 -12.360141 1.471285 1.079980 -3.722967 -2.539135 -20.989682 3.542933 -6.914800 0.000000 -57.676300
4.830333 17.375416 1.004691 5.435961 -59.361566 14.171801 -10.002726 -0.264504 2.387512 -6.606948 -7.373552 -22.617551 -2.467430 -1.268258 -3.160398 -0.250170 1.214721 10.301316 0.972000 0.000000 -43.128700 10.256868 -0.528730 -2.993958 4.224866 -17.002839 -12.560754 1.494309 1.087339 -3.725967 -2.511471 -20.837121 3.590332 -6.888800 0.000001 -57.685500
4.835095 17.375866 1.006472 5.331319 -59.630857 14.388829 -10.015243 -0.276885 2.353868 -6.572168 -7.198281 -22.759219 -2.462049 -1.273555 -3.177345 -0.245045 1.274406 10.275008 0.991700 -0.000000 -43.118000 10.237368 -0.527434 -2.963583 4.319243 -16.844722 -12.771017 1.515482 1.095056 -3.718375 -2.481900 -20.699856 3.626604 -6.869799 0.000000 -57.693601
4.839428 17.376125 1.008680 5.228370 -59.897259 14.609161 -10.027705 -0.288390 2.322304 -6.542314 -7.020303 -22.912646 -2.457822 -1.278779 -3.184555 -0.241085 1.324076 10.240265 1.008500 0.000000 -43.111600 10.217237 -0.525907 -2.928384 4.411098 -16.674692 -12.988666 1.535040 1.102909 -3.701330 -2.450625 -20.576216 3.652909 -6.856800 0.000000 -57.701500
4.843425 17.376191 1.011278 5.127027 -60.156774 14.832639 -10.039959 -0.299277 2.293363 -6.516263 -6.843897 -23.075931 -2.454662 -1.284077 -3.184956 -0.238097 1.364728 10.199943 1.022600 -0.000000 -43.108900 10.196664 -0.524199 -2.889714 4.500683 -16.498395 -13.213189 1.553367 1.110744 -3.675630 -2.417822 -20.464817 3.670448 -6.849201 0.000000 -57.712399
4.847224 17.376037 1.014197 5.030021 -60.407750 15.056014 -10.051976 -0.310201 2.266680 -6.493086 -6.675864 -23.247423 -2.451867 -1.289056 -3.175518 -0.235805 1.402759 10.152487 1.036200 0.000000 -43.109200 10.175511 -0.521751 -2.850001 4.586341 -16.320120 -13.441243 1.570658 1.118274 -3.642480 -2.383705 -20.362548 3.679504 -6.845300 -0.000000 -57.724100
4.850912 17.375712 1.017437 4.934943 -60.644245 15.281389 -10.063670 -0.321325 2.242989 -6.471639 -6.517873 -23.424819 -2.449755 -1.294228 -3.164343 -0.234084 1.435136 10.104663 1.048200 0.000000 -43.111401 10.154010 -0.518907 -2.810306 4.670374 -16.146806 -13.674895 1.587586 1.125287 -3.601529 -2.347834 -20.268179 3.681901 -6.845300 -0.000000 -57.741700
4.854590 17.375222 1.020928 4.844297 -60.865751 15.505702 -10.075158 -0.333327 2.221531 -6.451132 -6.374706 -23.606724 -2.447673 -1.299192 -3.148751 -0.232733 1.467536 10.055440 1.060500 0.000000 -43.114001 10.131937 -0.515066 -2.772845 4.751366 -15.981558 -13.911401 1.604263 1.131481 -3.553537 -2.310462 -20.179271 3.677934 -6.847700 0.000000 -57.761500
4.858291 17.374584 1.024613 4.760028 -61.070716 15.727946 -10.086468 -0.346514 2.202049 -6.431061 -6.248716 -23.791398 -2.445489 -1.304024 -3.130736 -0.231402 1.501688 10.006476 1.073600 -0.000000 -43.117100 10.109316 -0.510074 -2.739032 4.829549 -15.828101 -14.150227 1.621011 1.136702 -3.499177 -2.271314 -20.093446 3.668186 -6.851700 -0.000000 -57.783200
4.862026 17.373815 1.028492 4.681522 -61.257180 15.949073 -10.097733 -0.361085 2.184267 -6.411340 -6.139151 -23.977520 -2.443432 -1.308980 -3.115135 -0.230156 1.535368 9.961713 1.086700 0.000000 -43.119400 10.086130 -0.503896 -2.709462 4.905873 -15.688592 -14.392663 1.638041 1.140835 -3.438200 -2.230446 -20.010651 3.653625 -6.857600 -0.000000 -57.807900
4.865875 17.372970 1.032567 4.609433 -61.425561 16.168161 -10.109107 -0.377327 2.167501 -6.392203 -6.046159 -24.164375 -2.441403 -1.314003 -3.102349 -0.228891 1.569436 9.921587 1.100000 -0.000000 -43.119800 10.062245 -0.496264 -2.685028 4.980042 -15.564061 -14.638276 1.655437 1.143777 -3.371060 -2.187825 -19.929817 3.634911 -6.864900 0.000000 -57.833500
4.869781 17.372019 1.036748 4.547141 -61.578879 16.382143 -10.120721 -0.395390 2.150741 -6.373685 -5.970650 -24.350727 -2.438972 -1.318766 -3.088980 -0.227319 1.607958 9.883083 1.114900 -0.000001 -43.118100 10.037536 -0.486760 -2.666714 5.050549 -15.453794 -14.884171 1.673085 1.145526 -3.298939 -2.143892 -19.848959 3.611808 -6.872100 -0.000000 -57.857400
4.873682 17.370974 1.041135 4.493299 -61.716905 16.593584 -10.132716 -0.415058 2.133933 -6.356591 -5.908425 -24.536936 -2.436761 -1.323713 -3.080694 -0.225664 1.645624 9.850095 1.129500 -0.000000 -43.112700 10.012045 -0.475614 -2.653686 5.118738 -15.356998 -15.133039 1.691030 1.146271 -3.222146 -2.098655 -19.769674 3.585844 -6.880600 0.000000 -57.881199
4.877607 17.369846 1.045671 4.449378 -61.843894 16.799223 -10.145205 -0.436394 2.116140 -6.341139 -5.859576 -24.722238 -2.434302 -1.328428 -3.072722 -0.223725 1.686261 9.818311 1.145000 -0.000000 -43.103300 9.985624 -0.462426 -2.646467 5.182759 -15.271896 -15.381850 1.709097 1.146095 -3.142315 -2.052844 -19.690163 3.557428 -6.888800 -0.000000 -57.902800
